<svg width="250" height="60" viewBox="0 0 250 60" fill="none" xmlns="http://www.w3.org/2000/svg">
<circle cx="30" cy="30" r="28.5" stroke="url(#paint0_linear_12_82)" stroke-width="3"/>
<mask id="mask0_12_82" style="mask-type:alpha" maskUnits="userSpaceOnUse" x="8" y="19" width="45" height="21">
<line x1="9.5" y1="32.5" x2="9.5" y2="27.5" stroke="black" stroke-width="3" stroke-linecap="round"/>
<line x1="51.5" y1="32.5" x2="51.5" y2="27.5" stroke="black" stroke-width="3" stroke-linecap="round"/>
<line x1="15.5" y1="32.5" x2="15.5" y2="27.5" stroke="black" stroke-width="3" stroke-linecap="round"/>
<line x1="45.5" y1="32.5" x2="45.5" y2="27.5" stroke="black" stroke-width="3" stroke-linecap="round"/>
<line x1="21.5" y1="35.5" x2="21.5" y2="24.5" stroke="black" stroke-width="3" stroke-linecap="round"/>
<line x1="39.5" y1="35.5" x2="39.5" y2="24.5" stroke="black" stroke-width="3" stroke-linecap="round"/>
<line x1="27.5" y1="38.5" x2="27.5" y2="20.5" stroke="black" stroke-width="3" stroke-linecap="round"/>
<line x1="33.5" y1="38.5" x2="33.5" y2="20.5" stroke="black" stroke-width="3" stroke-linecap="round"/>
</mask>
<g mask="url(#mask0_12_82)">
<rect x="6" y="18" width="50" height="22" fill="url(#paint1_linear_12_82)"/>
</g>
<path d="M82.94 43.21C81.56 43.21 80.32 42.97 79.22 42.49C78.14 41.99 77.29 41.31 76.67 40.45C76.05 39.57 75.73 38.56 75.71 37.42H78.62C78.72 38.4 79.12 39.23 79.82 39.91C80.54 40.57 81.58 40.9 82.94 40.9C84.24 40.9 85.26 40.58 86 39.94C86.76 39.28 87.14 38.44 87.14 37.42C87.14 36.62 86.92 35.97 86.48 35.47C86.04 34.97 85.49 34.59 84.83 34.33C84.17 34.07 83.28 33.79 82.16 33.49C80.78 33.13 79.67 32.77 78.83 32.41C78.01 32.05 77.3 31.49 76.7 30.73C76.12 29.95 75.83 28.91 75.83 27.61C75.83 26.47 76.12 25.46 76.7 24.58C77.28 23.7 78.09 23.02 79.13 22.54C80.19 22.06 81.4 21.82 82.76 21.82C84.72 21.82 86.32 22.31 87.56 23.29C88.82 24.27 89.53 25.57 89.69 27.19H86.69C86.59 26.39 86.17 25.69 85.43 25.09C84.69 24.47 83.71 24.16 82.49 24.16C81.35 24.16 80.42 24.46 79.7 25.06C78.98 25.64 78.62 26.46 78.62 27.52C78.62 28.28 78.83 28.9 79.25 29.38C79.69 29.86 80.22 30.23 80.84 30.49C81.48 30.73 82.37 31.01 83.51 31.33C84.89 31.71 86 32.09 86.84 32.47C87.68 32.83 88.4 33.4 89 34.18C89.6 34.94 89.9 35.98 89.9 37.3C89.9 38.32 89.63 39.28 89.09 40.18C88.55 41.08 87.75 41.81 86.69 42.37C85.63 42.93 84.38 43.21 82.94 43.21ZM101.087 43.27C99.5474 43.27 98.1474 42.92 96.8874 42.22C95.6474 41.52 94.6674 40.53 93.9474 39.25C93.2474 37.95 92.8974 36.45 92.8974 34.75C92.8974 33.07 93.2574 31.59 93.9774 30.31C94.7174 29.01 95.7174 28.02 96.9774 27.34C98.2374 26.64 99.6474 26.29 101.207 26.29C102.767 26.29 104.177 26.64 105.437 27.34C106.697 28.02 107.687 29 108.407 30.28C109.147 31.56 109.517 33.05 109.517 34.75C109.517 36.45 109.137 37.95 108.377 39.25C107.637 40.53 106.627 41.52 105.347 42.22C104.067 42.92 102.647 43.27 101.087 43.27ZM101.087 40.87C102.067 40.87 102.987 40.64 103.847 40.18C104.707 39.72 105.397 39.03 105.917 38.11C106.457 37.19 106.727 36.07 106.727 34.75C106.727 33.43 106.467 32.31 105.947 31.39C105.427 30.47 104.747 29.79 103.907 29.35C103.067 28.89 102.157 28.66 101.177 28.66C100.177 28.66 99.2574 28.89 98.4174 29.35C97.5974 29.79 96.9374 30.47 96.4374 31.39C95.9374 32.31 95.6874 33.43 95.6874 34.75C95.6874 36.09 95.9274 37.22 96.4074 38.14C96.9074 39.06 97.5674 39.75 98.3874 40.21C99.2074 40.65 100.107 40.87 101.087 40.87ZM127.687 26.56V43H124.957V40.57C124.437 41.41 123.707 42.07 122.767 42.55C121.847 43.01 120.827 43.24 119.707 43.24C118.427 43.24 117.277 42.98 116.257 42.46C115.237 41.92 114.427 41.12 113.827 40.06C113.247 39 112.957 37.71 112.957 36.19V26.56H115.657V35.83C115.657 37.45 116.067 38.7 116.887 39.58C117.707 40.44 118.827 40.87 120.247 40.87C121.707 40.87 122.857 40.42 123.697 39.52C124.537 38.62 124.957 37.31 124.957 35.59V26.56H127.687ZM140.306 26.26C142.306 26.26 143.926 26.87 145.166 28.09C146.406 29.29 147.026 31.03 147.026 33.31V43H144.326V33.7C144.326 32.06 143.916 30.81 143.096 29.95C142.276 29.07 141.156 28.63 139.736 28.63C138.296 28.63 137.146 29.08 136.286 29.98C135.446 30.88 135.026 32.19 135.026 33.91V43H132.296V26.56H135.026V28.9C135.566 28.06 136.296 27.41 137.216 26.95C138.156 26.49 139.186 26.26 140.306 26.26ZM150.466 34.72C150.466 33.04 150.806 31.57 151.486 30.31C152.166 29.03 153.096 28.04 154.276 27.34C155.476 26.64 156.816 26.29 158.296 26.29C159.576 26.29 160.766 26.59 161.866 27.19C162.966 27.77 163.806 28.54 164.386 29.5V20.8H167.146V43H164.386V39.91C163.846 40.89 163.046 41.7 161.986 42.34C160.926 42.96 159.686 43.27 158.266 43.27C156.806 43.27 155.476 42.91 154.276 42.19C153.096 41.47 152.166 40.46 151.486 39.16C150.806 37.86 150.466 36.38 150.466 34.72ZM164.386 34.75C164.386 33.51 164.136 32.43 163.636 31.51C163.136 30.59 162.456 29.89 161.596 29.41C160.756 28.91 159.826 28.66 158.806 28.66C157.786 28.66 156.856 28.9 156.016 29.38C155.176 29.86 154.506 30.56 154.006 31.48C153.506 32.4 153.256 33.48 153.256 34.72C153.256 35.98 153.506 37.08 154.006 38.02C154.506 38.94 155.176 39.65 156.016 40.15C156.856 40.63 157.786 40.87 158.806 40.87C159.826 40.87 160.756 40.63 161.596 40.15C162.456 39.65 163.136 38.94 163.636 38.02C164.136 37.08 164.386 35.99 164.386 34.75ZM193.659 26.56L188.529 43H185.709L181.749 29.95L177.789 43H174.969L169.809 26.56H172.599L176.379 40.36L180.459 26.56H183.249L187.239 40.39L190.959 26.56H193.659ZM195.349 34.72C195.349 33.04 195.689 31.57 196.369 30.31C197.049 29.03 197.979 28.04 199.159 27.34C200.359 26.64 201.689 26.29 203.149 26.29C204.589 26.29 205.839 26.6 206.899 27.22C207.959 27.84 208.749 28.62 209.269 29.56V26.56H212.029V43H209.269V39.94C208.729 40.9 207.919 41.7 206.839 42.34C205.779 42.96 204.539 43.27 203.119 43.27C201.659 43.27 200.339 42.91 199.159 42.19C197.979 41.47 197.049 40.46 196.369 39.16C195.689 37.86 195.349 36.38 195.349 34.72ZM209.269 34.75C209.269 33.51 209.019 32.43 208.519 31.51C208.019 30.59 207.339 29.89 206.479 29.41C205.639 28.91 204.709 28.66 203.689 28.66C202.669 28.66 201.739 28.9 200.899 29.38C200.059 29.86 199.389 30.56 198.889 31.48C198.389 32.4 198.139 33.48 198.139 34.72C198.139 35.98 198.389 37.08 198.889 38.02C199.389 38.94 200.059 39.65 200.899 40.15C201.739 40.63 202.669 40.87 203.689 40.87C204.709 40.87 205.639 40.63 206.479 40.15C207.339 39.65 208.019 38.94 208.519 38.02C209.019 37.08 209.269 35.99 209.269 34.75ZM222.762 40.48L227.862 26.56H230.772L224.322 43H221.142L214.692 26.56H217.632L222.762 40.48ZM248.458 34.15C248.458 34.67 248.428 35.22 248.368 35.8H235.228C235.328 37.42 235.878 38.69 236.878 39.61C237.898 40.51 239.128 40.96 240.568 40.96C241.748 40.96 242.728 40.69 243.508 40.15C244.308 39.59 244.868 38.85 245.188 37.93H248.128C247.688 39.51 246.808 40.8 245.488 41.8C244.168 42.78 242.528 43.27 240.568 43.27C239.008 43.27 237.608 42.92 236.368 42.22C235.148 41.52 234.188 40.53 233.488 39.25C232.788 37.95 232.438 36.45 232.438 34.75C232.438 33.05 232.778 31.56 233.458 30.28C234.138 29 235.088 28.02 236.308 27.34C237.548 26.64 238.968 26.29 240.568 26.29C242.128 26.29 243.508 26.63 244.708 27.31C245.908 27.99 246.828 28.93 247.468 30.13C248.128 31.31 248.458 32.65 248.458 34.15ZM245.638 33.58C245.638 32.54 245.408 31.65 244.948 30.91C244.488 30.15 243.858 29.58 243.058 29.2C242.278 28.8 241.408 28.6 240.448 28.6C239.068 28.6 237.888 29.04 236.908 29.92C235.948 30.8 235.398 32.02 235.258 33.58H245.638Z" fill="white"/>
<defs>
<linearGradient id="paint0_linear_12_82" x1="30" y1="0" x2="30" y2="60" gradientUnits="userSpaceOnUse">
<stop stop-color="#1762A7"/>
<stop offset="1" stop-color="#CC33AA"/>
</linearGradient>
<linearGradient id="paint1_linear_12_82" x1="31" y1="18" x2="31" y2="40" gradientUnits="userSpaceOnUse">
<stop stop-color="#1762A7"/>
<stop offset="1" stop-color="#CC33AA"/>
</linearGradient>
</defs>
</svg>
